<svg width="914" height="109" viewBox="0 0 914 109" fill="none" xmlns="http://www.w3.org/2000/svg">
<path d="M33.7699 80.45H391.97V107H0.169922V0.199998H33.7699V80.45ZM438.552 2.3V107H402.852V2.3H438.552ZM456.615 2.14999H496.515L569.565 68.15V2.14999H604.965V107.15H569.565L491.865 37.55V107.15H456.615V2.14999ZM710.768 107L666.668 67.85H655.718V107H623.168V3.34999H655.718V36.5H668.018L709.118 3.34999H750.518L690.668 50.75L753.368 107H710.768ZM827.978 0.349996H832.778C842.828 0.349996 851.828 0.949997 859.928 2.3C868.028 3.49999 874.778 5.15 880.328 7.25C885.728 9.35 890.528 11.9 894.578 14.9C898.778 17.9 901.928 20.9 904.178 23.9C906.578 26.9 908.378 30.2 909.878 33.8C911.228 37.4 912.278 40.55 912.578 43.4C913.028 46.25 913.178 49.1 913.178 52.25V56.45C913.178 59.45 913.028 62.45 912.578 65.3C912.278 68 911.228 71.3 909.878 74.9C908.378 78.5 906.578 81.8 904.328 84.95C902.078 87.95 898.928 90.95 894.728 94.1C890.528 97.1 885.728 99.65 880.328 101.9C874.928 104 868.178 105.65 859.928 107C851.828 108.35 842.828 108.95 832.778 108.95H827.978C817.928 108.95 808.928 108.35 800.678 107C792.578 105.65 785.678 104 780.278 101.9C774.878 99.65 770.078 97.1 765.878 94.1C761.678 90.95 758.528 87.95 756.128 84.95C753.878 81.8 752.078 78.5 750.728 74.9C749.228 71.3 748.328 68 748.028 65.3C747.578 62.45 747.428 59.45 747.428 56.45V52.25C747.428 49.1 747.578 46.25 748.028 43.4C748.328 40.7 749.228 37.4 750.728 33.8C752.078 30.2 753.878 26.9 756.128 23.9C758.528 20.9 761.678 17.9 765.878 14.9C769.928 11.9 774.728 9.35 780.128 7.25C785.678 5.15 792.578 3.49999 800.678 2.3C808.928 0.949997 817.928 0.349996 827.978 0.349996ZM875.678 55.25V53.3C875.678 50.6 875.378 48.05 874.628 45.8C873.878 43.4 872.528 41 870.428 38.45C868.478 35.9 865.778 33.65 862.478 32C859.178 30.2 854.678 28.7 849.128 27.5C844.478 26.45 839.228 26 833.378 25.85C832.028 25.7 829.328 25.7 828.428 25.7C799.478 26.3 784.928 35.45 784.928 53.3V54.95C784.928 58.25 785.528 61.55 786.878 64.55C788.078 67.55 790.328 70.55 793.328 73.55C796.478 76.55 801.128 78.95 807.578 80.75C813.578 82.4 820.778 83.3 829.028 83.45C829.778 83.45 831.578 83.45 832.778 83.45C840.428 83.15 847.178 82.4 852.728 80.75C859.178 79.1 863.978 76.7 867.128 73.7C870.278 70.85 872.528 67.85 873.728 64.85C875.078 61.85 875.678 58.55 875.678 55.25Z" fill="#DCDCDC"/>
</svg>
