<svg width="1200" height="206" viewBox="0 0 1200 206" fill="none" xmlns="http://www.w3.org/2000/svg">
<path d="M35.334 177.664V157.183H37.6445L37.7676 158.797C37.9681 158.541 38.1868 158.314 38.4238 158.113C38.6608 157.903 38.916 157.726 39.1895 157.58C39.5723 157.361 39.9961 157.197 40.4609 157.088C40.9349 156.969 41.4408 156.91 41.9785 156.91C42.9264 156.91 43.765 157.097 44.4941 157.47C45.2233 157.844 45.834 158.364 46.3262 159.029C46.8184 159.694 47.1921 160.492 47.4473 161.422C47.7025 162.342 47.8301 163.354 47.8301 164.457V164.744C47.8301 165.801 47.7025 166.79 47.4473 167.711C47.1921 168.622 46.8184 169.415 46.3262 170.09C45.834 170.764 45.2233 171.293 44.4941 171.676C43.7741 172.058 42.9492 172.25 42.0195 172.25C41.4544 172.25 40.9258 172.191 40.4336 172.072C39.9505 171.954 39.513 171.785 39.1211 171.566C38.8841 171.429 38.6608 171.279 38.4512 171.115C38.2415 170.942 38.0456 170.755 37.8633 170.554V177.664H35.334ZM45.3008 164.457C45.3008 163.737 45.2188 163.053 45.0547 162.406C44.8997 161.75 44.6582 161.171 44.3301 160.67C43.9928 160.177 43.569 159.786 43.0586 159.494C42.5482 159.202 41.9375 159.056 41.2266 159.056C40.8346 159.056 40.4701 159.102 40.1328 159.193C39.8047 159.284 39.5085 159.416 39.2441 159.59C38.9525 159.763 38.6927 159.977 38.4648 160.232C38.237 160.487 38.0365 160.77 37.8633 161.08V168.203C38.0182 168.476 38.196 168.732 38.3965 168.969C38.597 169.205 38.8249 169.406 39.0801 169.57C39.3717 169.761 39.6953 169.912 40.0508 170.021C40.4154 170.131 40.8164 170.185 41.2539 170.185C41.9557 170.185 42.5618 170.039 43.0723 169.748C43.5827 169.447 44.002 169.046 44.3301 168.545C44.6582 168.043 44.8997 167.465 45.0547 166.808C45.2188 166.152 45.3008 165.464 45.3008 164.744V164.457ZM51.4531 164.443C51.4531 163.377 51.6081 162.388 51.918 161.476C52.2279 160.556 52.6745 159.758 53.2578 159.084C53.832 158.409 54.5339 157.881 55.3633 157.498C56.1927 157.106 57.127 156.91 58.166 156.91C59.2142 156.91 60.153 157.106 60.9824 157.498C61.821 157.881 62.5319 158.409 63.1152 159.084C63.6895 159.758 64.1315 160.556 64.4414 161.476C64.7513 162.388 64.9062 163.377 64.9062 164.443V164.744C64.9062 165.81 64.7513 166.799 64.4414 167.711C64.1315 168.622 63.6895 169.415 63.1152 170.09C62.5319 170.764 61.8255 171.293 60.9961 171.676C60.1667 172.058 59.2324 172.25 58.1934 172.25C57.1452 172.25 56.2018 172.058 55.3633 171.676C54.5339 171.293 53.832 170.764 53.2578 170.09C52.6745 169.415 52.2279 168.622 51.918 167.711C51.6081 166.799 51.4531 165.81 51.4531 164.744V164.443ZM53.9824 164.744C53.9824 165.473 54.069 166.17 54.2422 166.836C54.4154 167.492 54.6797 168.071 55.0352 168.572C55.3815 169.073 55.819 169.47 56.3477 169.761C56.8763 170.053 57.4915 170.199 58.1934 170.199C58.8861 170.199 59.4922 170.053 60.0117 169.761C60.5404 169.47 60.9824 169.073 61.3379 168.572C61.6842 168.071 61.944 167.492 62.1172 166.836C62.2904 166.17 62.377 165.473 62.377 164.744V164.443C62.377 163.723 62.2858 163.035 62.1035 162.379C61.9303 161.713 61.6706 161.13 61.3242 160.629C60.9688 160.127 60.5267 159.731 59.998 159.439C59.4785 159.138 58.8678 158.988 58.166 158.988C57.4642 158.988 56.8535 159.138 56.334 159.439C55.8145 159.731 55.3815 160.127 55.0352 160.629C54.6797 161.13 54.4154 161.713 54.2422 162.379C54.069 163.035 53.9824 163.723 53.9824 164.443V164.744ZM78.6738 156.91C79.1387 156.91 79.6217 156.942 80.123 157.006C80.6335 157.069 81.0163 157.156 81.2715 157.265L80.9297 159.74C80.4375 159.631 79.9681 159.553 79.5215 159.508C79.084 159.453 78.6237 159.426 78.1406 159.426C77.5208 159.426 76.9603 159.503 76.459 159.658C75.9577 159.804 75.5202 160.023 75.1465 160.314C74.8092 160.569 74.513 160.884 74.2578 161.258C74.0117 161.622 73.8066 162.032 73.6426 162.488V171.976H71.0996V157.183H73.5059L73.6152 159.166L73.6289 159.535C74.2305 158.724 74.9505 158.086 75.7891 157.621C76.6367 157.147 77.5983 156.91 78.6738 156.91ZM91.7852 153.601V157.183H97.418V159.138H91.7852V167.177C91.7852 167.752 91.8581 168.226 92.0039 168.599C92.1497 168.973 92.3503 169.269 92.6055 169.488C92.8607 169.716 93.1523 169.875 93.4805 169.967C93.8177 170.058 94.1732 170.103 94.5469 170.103C94.8203 170.103 95.1029 170.09 95.3945 170.062C95.6862 170.026 95.9733 169.985 96.2559 169.939C96.5293 169.894 96.7845 169.848 97.0215 169.802C97.2676 169.748 97.4681 169.702 97.623 169.666L97.9785 171.457C97.7689 171.584 97.5137 171.698 97.2129 171.799C96.9121 171.89 96.584 171.967 96.2285 172.031C95.873 172.104 95.4948 172.159 95.0938 172.195C94.7018 172.232 94.3099 172.25 93.918 172.25C93.2617 172.25 92.6465 172.159 92.0723 171.976C91.5072 171.785 91.015 171.484 90.5957 171.074C90.1764 170.673 89.8438 170.153 89.5977 169.515C89.3607 168.868 89.2422 168.089 89.2422 167.177V159.138H85.3594V157.183H89.2422V153.601H91.7852ZM106.387 171.976V159.138H102.312V157.183H106.387V156.144C106.387 155.196 106.523 154.367 106.797 153.656C107.079 152.936 107.476 152.334 107.986 151.851C108.488 151.368 109.094 151.004 109.805 150.758C110.516 150.511 111.309 150.388 112.184 150.388C112.548 150.388 112.908 150.411 113.264 150.457C113.619 150.493 113.97 150.543 114.316 150.607C114.544 150.653 114.772 150.703 115 150.758C115.228 150.803 115.46 150.858 115.697 150.922L115.396 153.013C115.023 152.886 114.585 152.776 114.084 152.685C113.592 152.585 113.063 152.535 112.498 152.535C111.924 152.535 111.413 152.608 110.967 152.754C110.529 152.89 110.165 153.1 109.873 153.383C109.563 153.674 109.326 154.052 109.162 154.517C109.007 154.982 108.93 155.524 108.93 156.144V157.183H114.631V159.138H108.93V171.976H106.387ZM118.719 164.443C118.719 163.377 118.874 162.388 119.184 161.476C119.493 160.556 119.94 159.758 120.523 159.084C121.098 158.409 121.799 157.881 122.629 157.498C123.458 157.106 124.393 156.91 125.432 156.91C126.48 156.91 127.419 157.106 128.248 157.498C129.087 157.881 129.798 158.409 130.381 159.084C130.955 159.758 131.397 160.556 131.707 161.476C132.017 162.388 132.172 163.377 132.172 164.443V164.744C132.172 165.81 132.017 166.799 131.707 167.711C131.397 168.622 130.955 169.415 130.381 170.09C129.798 170.764 129.091 171.293 128.262 171.676C127.432 172.058 126.498 172.25 125.459 172.25C124.411 172.25 123.467 172.058 122.629 171.676C121.799 171.293 121.098 170.764 120.523 170.09C119.94 169.415 119.493 168.622 119.184 167.711C118.874 166.799 118.719 165.81 118.719 164.744V164.443ZM121.248 164.744C121.248 165.473 121.335 166.17 121.508 166.836C121.681 167.492 121.945 168.071 122.301 168.572C122.647 169.073 123.085 169.47 123.613 169.761C124.142 170.053 124.757 170.199 125.459 170.199C126.152 170.199 126.758 170.053 127.277 169.761C127.806 169.47 128.248 169.073 128.604 168.572C128.95 168.071 129.21 167.492 129.383 166.836C129.556 166.17 129.643 165.473 129.643 164.744V164.443C129.643 163.723 129.551 163.035 129.369 162.379C129.196 161.713 128.936 161.13 128.59 160.629C128.234 160.127 127.792 159.731 127.264 159.439C126.744 159.138 126.133 158.988 125.432 158.988C124.73 158.988 124.119 159.138 123.6 159.439C123.08 159.731 122.647 160.127 122.301 160.629C121.945 161.13 121.681 161.713 121.508 162.379C121.335 163.035 121.248 163.723 121.248 164.443V164.744ZM136.643 150.976H144.203V169.789H149.029V171.976H136.643V169.789H141.674V153.177H136.643V150.976ZM153.459 157.183H161.02V169.789H165.846V171.976H153.459V169.789H158.49V159.385H153.459V157.183ZM158.162 153.301C158.162 153.082 158.194 152.877 158.258 152.685C158.331 152.494 158.44 152.33 158.586 152.193C158.704 152.075 158.855 151.983 159.037 151.92C159.229 151.847 159.443 151.81 159.68 151.81C159.917 151.81 160.126 151.847 160.309 151.92C160.491 151.983 160.641 152.075 160.76 152.193C160.906 152.321 161.015 152.48 161.088 152.672C161.161 152.863 161.197 153.073 161.197 153.301C161.197 153.711 161.07 154.052 160.814 154.326C160.559 154.599 160.181 154.736 159.68 154.736C159.169 154.736 158.786 154.599 158.531 154.326C158.285 154.052 158.162 153.711 158.162 153.301ZM169.168 164.443C169.168 163.377 169.323 162.388 169.633 161.476C169.943 160.556 170.389 159.758 170.973 159.084C171.547 158.409 172.249 157.881 173.078 157.498C173.908 157.106 174.842 156.91 175.881 156.91C176.929 156.91 177.868 157.106 178.697 157.498C179.536 157.881 180.247 158.409 180.83 159.084C181.404 159.758 181.846 160.556 182.156 161.476C182.466 162.388 182.621 163.377 182.621 164.443V164.744C182.621 165.81 182.466 166.799 182.156 167.711C181.846 168.622 181.404 169.415 180.83 170.09C180.247 170.764 179.54 171.293 178.711 171.676C177.882 172.058 176.947 172.25 175.908 172.25C174.86 172.25 173.917 172.058 173.078 171.676C172.249 171.293 171.547 170.764 170.973 170.09C170.389 169.415 169.943 168.622 169.633 167.711C169.323 166.799 169.168 165.81 169.168 164.744V164.443ZM171.697 164.744C171.697 165.473 171.784 166.17 171.957 166.836C172.13 167.492 172.395 168.071 172.75 168.572C173.096 169.073 173.534 169.47 174.062 169.761C174.591 170.053 175.206 170.199 175.908 170.199C176.601 170.199 177.207 170.053 177.727 169.761C178.255 169.47 178.697 169.073 179.053 168.572C179.399 168.071 179.659 167.492 179.832 166.836C180.005 166.17 180.092 165.473 180.092 164.744V164.443C180.092 163.723 180.001 163.035 179.818 162.379C179.645 161.713 179.385 161.13 179.039 160.629C178.684 160.127 178.242 159.731 177.713 159.439C177.193 159.138 176.583 158.988 175.881 158.988C175.179 158.988 174.568 159.138 174.049 159.439C173.529 159.731 173.096 160.127 172.75 160.629C172.395 161.13 172.13 161.713 171.957 162.379C171.784 163.035 171.697 163.723 171.697 164.443V164.744ZM202.596 166.877C202.596 166.266 202.687 165.701 202.869 165.181C203.051 164.662 203.307 164.174 203.635 163.719C203.917 163.336 204.241 162.971 204.605 162.625C204.979 162.278 205.389 161.937 205.836 161.599L206.328 161.244C205.991 160.788 205.69 160.351 205.426 159.931C205.161 159.503 204.943 159.084 204.77 158.674C204.633 158.336 204.523 157.995 204.441 157.648C204.368 157.302 204.332 156.946 204.332 156.582C204.332 155.807 204.446 155.123 204.674 154.531C204.911 153.929 205.243 153.424 205.672 153.013C206.1 152.612 206.615 152.307 207.217 152.097C207.818 151.888 208.493 151.783 209.24 151.783C209.887 151.783 210.475 151.897 211.004 152.125C211.533 152.353 211.984 152.658 212.357 153.041C212.722 153.433 213.005 153.884 213.205 154.394C213.406 154.905 213.506 155.442 213.506 156.008C213.506 156.491 213.433 156.933 213.287 157.334C213.15 157.726 212.959 158.095 212.713 158.441C212.458 158.788 212.157 159.116 211.811 159.426C211.464 159.735 211.09 160.041 210.689 160.342L209.404 161.435L213.602 166.945C213.921 166.362 214.171 165.724 214.354 165.031C214.536 164.338 214.632 163.591 214.641 162.789H216.924C216.924 163.955 216.755 165.04 216.418 166.043C216.09 167.036 215.607 167.934 214.969 168.736L217.443 171.976H214.422L213.287 170.472C213.032 170.691 212.763 170.892 212.48 171.074C212.207 171.256 211.924 171.416 211.633 171.552C211.15 171.78 210.644 171.954 210.115 172.072C209.596 172.191 209.058 172.25 208.502 172.25C207.6 172.25 206.784 172.118 206.055 171.853C205.326 171.589 204.706 171.22 204.195 170.746C203.685 170.272 203.288 169.707 203.006 169.051C202.732 168.385 202.596 167.661 202.596 166.877ZM208.502 170.199C208.876 170.199 209.245 170.158 209.609 170.076C209.974 169.994 210.325 169.875 210.662 169.72C210.908 169.611 211.145 169.483 211.373 169.338C211.61 169.183 211.838 169.014 212.057 168.832L207.641 162.939L207.258 163.267C206.802 163.641 206.433 164.006 206.15 164.361C205.868 164.717 205.654 165.049 205.508 165.359C205.353 165.678 205.248 165.97 205.193 166.234C205.148 166.489 205.125 166.704 205.125 166.877C205.125 167.342 205.198 167.774 205.344 168.176C205.49 168.577 205.704 168.927 205.986 169.228C206.269 169.529 206.62 169.766 207.039 169.939C207.458 170.112 207.946 170.199 208.502 170.199ZM206.875 156.554C206.875 156.782 206.898 157.015 206.943 157.252C206.989 157.48 207.057 157.707 207.148 157.935C207.258 158.236 207.399 158.541 207.572 158.851C207.745 159.161 207.946 159.48 208.174 159.808L209.773 158.537C210.056 158.345 210.288 158.145 210.471 157.935C210.653 157.726 210.794 157.511 210.895 157.293C210.995 157.083 211.063 156.869 211.1 156.65C211.145 156.431 211.168 156.217 211.168 156.008C211.168 155.734 211.122 155.47 211.031 155.215C210.949 154.95 210.826 154.718 210.662 154.517C210.489 154.326 210.284 154.171 210.047 154.052C209.81 153.925 209.541 153.861 209.24 153.861C208.848 153.861 208.502 153.934 208.201 154.08C207.91 154.226 207.668 154.422 207.477 154.668C207.276 154.914 207.126 155.201 207.025 155.529C206.925 155.848 206.875 156.19 206.875 156.554ZM249.682 164.744C249.682 165.391 249.632 166.015 249.531 166.617C249.44 167.209 249.303 167.765 249.121 168.285C248.875 168.969 248.551 169.584 248.15 170.131C247.758 170.668 247.285 171.115 246.729 171.47C246.327 171.717 245.885 171.908 245.402 172.045C244.928 172.181 244.413 172.25 243.857 172.25C243.219 172.25 242.636 172.172 242.107 172.017C241.588 171.862 241.118 171.639 240.699 171.347C240.499 171.202 240.307 171.042 240.125 170.869C239.943 170.696 239.77 170.504 239.605 170.295L239.482 171.976H237.158V150.976H239.688V158.769C239.897 158.505 240.13 158.268 240.385 158.058C240.64 157.84 240.913 157.653 241.205 157.498C241.57 157.306 241.971 157.161 242.408 157.06C242.846 156.96 243.32 156.91 243.83 156.91C244.468 156.91 245.056 156.997 245.594 157.17C246.132 157.343 246.619 157.584 247.057 157.894C247.449 158.186 247.799 158.541 248.109 158.961C248.419 159.371 248.693 159.831 248.93 160.342C249.176 160.916 249.363 161.554 249.49 162.256C249.618 162.948 249.682 163.682 249.682 164.457V164.744ZM247.152 164.457C247.152 163.992 247.12 163.541 247.057 163.103C247.002 162.657 246.915 162.237 246.797 161.845C246.633 161.362 246.419 160.92 246.154 160.519C245.89 160.118 245.566 159.804 245.184 159.576C244.919 159.412 244.623 159.284 244.295 159.193C243.967 159.102 243.602 159.056 243.201 159.056C242.764 159.056 242.363 159.116 241.998 159.234C241.633 159.344 241.31 159.498 241.027 159.699C240.736 159.909 240.476 160.155 240.248 160.437C240.029 160.711 239.842 161.011 239.688 161.34V167.806C239.852 168.135 240.043 168.44 240.262 168.722C240.49 168.996 240.749 169.237 241.041 169.447C241.333 169.657 241.661 169.821 242.025 169.939C242.39 170.049 242.791 170.103 243.229 170.103C243.648 170.103 244.031 170.053 244.377 169.953C244.723 169.844 245.033 169.689 245.307 169.488C245.671 169.233 245.977 168.909 246.223 168.517C246.469 168.125 246.665 167.688 246.811 167.205C246.929 166.84 247.016 166.448 247.07 166.029C247.125 165.61 247.152 165.181 247.152 164.744V164.457ZM254.357 150.976H261.918V169.789H266.744V171.976H254.357V169.789H259.389V153.177H254.357V150.976ZM270.066 164.443C270.066 163.377 270.221 162.388 270.531 161.476C270.841 160.556 271.288 159.758 271.871 159.084C272.445 158.409 273.147 157.881 273.977 157.498C274.806 157.106 275.74 156.91 276.779 156.91C277.827 156.91 278.766 157.106 279.596 157.498C280.434 157.881 281.145 158.409 281.729 159.084C282.303 159.758 282.745 160.556 283.055 161.476C283.365 162.388 283.52 163.377 283.52 164.443V164.744C283.52 165.81 283.365 166.799 283.055 167.711C282.745 168.622 282.303 169.415 281.729 170.09C281.145 170.764 280.439 171.293 279.609 171.676C278.78 172.058 277.846 172.25 276.807 172.25C275.758 172.25 274.815 172.058 273.977 171.676C273.147 171.293 272.445 170.764 271.871 170.09C271.288 169.415 270.841 168.622 270.531 167.711C270.221 166.799 270.066 165.81 270.066 164.744V164.443ZM272.596 164.744C272.596 165.473 272.682 166.17 272.855 166.836C273.029 167.492 273.293 168.071 273.648 168.572C273.995 169.073 274.432 169.47 274.961 169.761C275.49 170.053 276.105 170.199 276.807 170.199C277.499 170.199 278.105 170.053 278.625 169.761C279.154 169.47 279.596 169.073 279.951 168.572C280.298 168.071 280.557 167.492 280.73 166.836C280.904 166.17 280.99 165.473 280.99 164.744V164.443C280.99 163.723 280.899 163.035 280.717 162.379C280.544 161.713 280.284 161.13 279.938 160.629C279.582 160.127 279.14 159.731 278.611 159.439C278.092 159.138 277.481 158.988 276.779 158.988C276.077 158.988 275.467 159.138 274.947 159.439C274.428 159.731 273.995 160.127 273.648 160.629C273.293 161.13 273.029 161.713 272.855 162.379C272.682 163.035 272.596 163.723 272.596 164.443V164.744ZM287.129 164.457C287.129 163.354 287.261 162.342 287.525 161.422C287.799 160.492 288.191 159.694 288.701 159.029C289.212 158.364 289.831 157.844 290.561 157.47C291.29 157.097 292.115 156.91 293.035 156.91C293.628 156.91 294.17 156.978 294.662 157.115C295.163 157.252 295.615 157.452 296.016 157.717C296.234 157.853 296.439 158.013 296.631 158.195C296.831 158.377 297.018 158.578 297.191 158.797L297.314 157.183H299.611V171.662C299.611 172.637 299.456 173.503 299.146 174.26C298.846 175.016 298.422 175.659 297.875 176.187C297.319 176.716 296.658 177.117 295.893 177.39C295.127 177.664 294.279 177.801 293.35 177.801C292.967 177.801 292.529 177.755 292.037 177.664C291.545 177.582 291.048 177.441 290.547 177.24C290.036 177.049 289.544 176.789 289.07 176.461C288.605 176.133 288.204 175.727 287.867 175.244L289.18 173.726C289.49 174.1 289.809 174.414 290.137 174.67C290.465 174.934 290.798 175.144 291.135 175.299C291.472 175.454 291.809 175.563 292.146 175.627C292.484 175.7 292.821 175.736 293.158 175.736C293.76 175.736 294.302 175.649 294.785 175.476C295.268 175.303 295.683 175.048 296.029 174.711C296.367 174.383 296.626 173.972 296.809 173.48C296.991 172.988 297.082 172.423 297.082 171.785V170.513C296.891 170.732 296.686 170.933 296.467 171.115C296.257 171.297 296.029 171.457 295.783 171.594C295.4 171.803 294.977 171.963 294.512 172.072C294.047 172.191 293.546 172.25 293.008 172.25C292.105 172.25 291.29 172.058 290.561 171.676C289.831 171.293 289.216 170.764 288.715 170.09C288.204 169.415 287.812 168.622 287.539 167.711C287.266 166.79 287.129 165.801 287.129 164.744V164.457ZM289.658 164.744C289.658 165.464 289.731 166.148 289.877 166.795C290.032 167.442 290.273 168.011 290.602 168.504C290.921 168.996 291.331 169.388 291.832 169.679C292.333 169.962 292.935 170.103 293.637 170.103C294.074 170.103 294.466 170.053 294.812 169.953C295.168 169.844 295.487 169.693 295.77 169.502C296.043 169.31 296.289 169.082 296.508 168.818C296.727 168.554 296.918 168.262 297.082 167.943V161.162C296.918 160.852 296.727 160.569 296.508 160.314C296.289 160.059 296.038 159.836 295.756 159.644C295.473 159.462 295.159 159.321 294.812 159.22C294.466 159.111 294.083 159.056 293.664 159.056C292.953 159.056 292.342 159.202 291.832 159.494C291.331 159.786 290.921 160.177 290.602 160.67C290.273 161.171 290.032 161.75 289.877 162.406C289.731 163.053 289.658 163.737 289.658 164.457V164.744Z" fill="#DCDCDC"/>
<mask id="mask0_37_34" style="mask-type:luminance" maskUnits="userSpaceOnUse" x="299" y="102" width="901" height="104">
<path d="M1198.94 102.514L299.005 104.085L299.182 205.033L1199.12 203.462L1198.94 102.514Z" fill="white"/>
</mask>
<g mask="url(#mask0_37_34)">
<path d="M332.216 177.661L684.901 177.046L684.944 201.634L299.176 202.307L299.15 103.476L332.086 103.34L332.216 177.661ZM726.785 102.514L727.088 201.825L693.225 201.888L693.19 102.514H726.785ZM748.425 103.593L789.825 103.524L865.734 165.041V103.976H884H902.532V201.405L865.801 201.466L785.06 136.595L785.179 201.601L748.603 201.662L748.425 103.593ZM1000.33 201.084L956.685 164.364L945.863 164.383L945.927 201.18L913.757 201.237L913.589 103.816L945.759 103.759L945.812 134.917L957.969 134.895L998.5 103.976H1039L980.377 148.249L1042.44 201.01L1000.33 201.084ZM1114.07 102.114L1118.79 102.106C1128.69 102.089 1137.55 102.629 1145.53 103.865C1153.51 104.963 1160.15 106.479 1165.62 108.415C1170.94 110.35 1175.67 112.704 1179.67 115.475C1183.81 118.246 1186.91 121.019 1189.13 123.794C1191.5 126.568 1193.28 129.621 1194.76 132.952C1196.1 136.284 1197.13 139.199 1197.43 141.838C1197.88 144.477 1198.03 147.116 1198.04 150.034L1198.05 153.923C1198.05 156.702 1197.91 159.48 1197.47 162.12C1197.18 164.621 1196.15 167.679 1194.83 171.016C1193.36 174.352 1191.59 177.412 1189.38 180.333C1187.17 183.115 1184.07 185.899 1179.94 188.823C1175.81 191.609 1171.09 193.979 1165.78 196.072C1160.46 198.026 1153.82 199.566 1145.7 200.83C1137.72 202.094 1128.86 202.665 1118.97 202.683L1114.24 202.691C1104.35 202.708 1095.49 202.168 1087.36 200.932C1079.38 199.696 1072.59 198.179 1067.27 196.244C1061.95 194.169 1057.22 191.816 1053.08 189.045C1048.93 186.135 1045.83 183.362 1043.46 180.588C1041.24 177.674 1039.46 174.621 1038.13 171.289C1036.64 167.958 1035.75 164.903 1035.45 162.403C1035.01 159.765 1034.85 156.986 1034.85 154.208L1034.84 150.318C1034.84 147.401 1034.98 144.761 1035.42 142.121C1035.71 139.62 1036.59 136.562 1038.06 133.226C1039.38 129.889 1041.15 126.83 1043.36 124.048C1045.72 121.265 1048.82 118.482 1052.95 115.696C1056.93 112.911 1061.65 110.541 1066.97 108.587C1072.43 106.632 1079.22 105.092 1087.19 103.967C1095.31 102.703 1104.17 102.132 1114.07 102.114ZM1161.12 152.876L1161.12 151.07C1161.11 148.57 1160.81 146.209 1160.07 144.126C1159.33 141.905 1158 139.685 1155.93 137.327C1154 134.968 1151.34 132.889 1148.09 131.367C1144.84 129.705 1140.4 128.324 1134.94 127.222C1130.36 126.258 1125.19 125.85 1119.43 125.721C1118.1 125.585 1115.44 125.589 1114.55 125.591C1086.05 126.196 1071.74 134.695 1071.77 151.226L1071.77 152.754C1071.77 155.811 1072.37 158.866 1073.7 161.642C1074.89 164.418 1077.11 167.193 1080.07 169.966C1083.18 172.739 1087.76 174.953 1094.11 176.609C1100.02 178.127 1107.11 178.948 1115.24 179.073C1115.97 179.072 1117.75 179.069 1118.93 179.067C1126.46 178.776 1133.1 178.069 1138.57 176.532C1144.91 174.993 1149.64 172.762 1152.73 169.978C1155.83 167.333 1158.04 164.551 1159.22 161.77C1160.54 158.99 1161.13 155.932 1161.12 152.876Z" fill="#DCDCDC"/>
</g>
<mask id="mask1_37_34" style="mask-type:luminance" maskUnits="userSpaceOnUse" x="0" y="0" width="1040" height="106">
<path d="M1039.15 0H0.334686V105.642H1039.15V0Z" fill="white"/>
</mask>
<g mask="url(#mask1_37_34)">
<path d="M101.692 103.493H58.555L1.1851 2.10494H40.3609L81.004 76.6417L119.153 2.10494H155.101L101.692 103.493ZM163.886 1.81149H282V25.1409H198.513V40.4004H280.092V63.8766H198.513V80.7501H283.614V104.666H163.886V1.81149ZM332.016 78.6959H682.398V104.666H299.149V0.197479H332.016V78.6959ZM693.189 104.813V2.10494H742.929L781.518 66.0774L820.4 2.10494H868.38V104.813H833.752V33.651L789.734 104.813H770.953L726.789 33.651V104.813H693.189ZM983.866 2.33445L1039 103.976L1004.23 104.136L994.566 85.5733H920.403L910.743 104.136H875.968L931.103 2.33445H983.866ZM932.855 63.143H982.453L963.08 25.8746H952.076L932.855 63.143Z" fill="#DCDCDC"/>
</g>
</svg>
