<svg width="1200" height="206" viewBox="0 0 1200 206" fill="none" xmlns="http://www.w3.org/2000/svg">
<path d="M35.334 177.688V157.207H37.6445L37.7676 158.82C37.9681 158.565 38.1868 158.337 38.4238 158.137C38.6608 157.927 38.916 157.749 39.1895 157.604C39.5723 157.385 39.9961 157.221 40.4609 157.111C40.9349 156.993 41.4408 156.934 41.9785 156.934C42.9264 156.934 43.765 157.12 44.4941 157.494C45.2233 157.868 45.834 158.387 46.3262 159.053C46.8184 159.718 47.1921 160.516 47.4473 161.445C47.7025 162.366 47.8301 163.378 47.8301 164.48V164.768C47.8301 165.825 47.7025 166.814 47.4473 167.734C47.1921 168.646 46.8184 169.439 46.3262 170.113C45.834 170.788 45.2233 171.316 44.4941 171.699C43.7741 172.082 42.9492 172.273 42.0195 172.273C41.4544 172.273 40.9258 172.214 40.4336 172.096C39.9505 171.977 39.513 171.809 39.1211 171.59C38.8841 171.453 38.6608 171.303 38.4512 171.139C38.2415 170.965 38.0456 170.779 37.8633 170.578V177.688H35.334ZM45.3008 164.48C45.3008 163.76 45.2188 163.077 45.0547 162.43C44.8997 161.773 44.6582 161.195 44.3301 160.693C43.9928 160.201 43.569 159.809 43.0586 159.518C42.5482 159.226 41.9375 159.08 41.2266 159.08C40.8346 159.08 40.4701 159.126 40.1328 159.217C39.8047 159.308 39.5085 159.44 39.2441 159.613C38.9525 159.786 38.6927 160.001 38.4648 160.256C38.237 160.511 38.0365 160.794 37.8633 161.104V168.227C38.0182 168.5 38.196 168.755 38.3965 168.992C38.597 169.229 38.8249 169.43 39.0801 169.594C39.3717 169.785 39.6953 169.936 40.0508 170.045C40.4154 170.154 40.8164 170.209 41.2539 170.209C41.9557 170.209 42.5618 170.063 43.0723 169.771C43.5827 169.471 44.002 169.07 44.3301 168.568C44.6582 168.067 44.8997 167.488 45.0547 166.832C45.2188 166.176 45.3008 165.488 45.3008 164.768V164.48ZM51.4531 164.467C51.4531 163.4 51.6081 162.411 51.918 161.5C52.2279 160.579 52.6745 159.782 53.2578 159.107C53.832 158.433 54.5339 157.904 55.3633 157.521C56.1927 157.13 57.127 156.934 58.166 156.934C59.2142 156.934 60.153 157.13 60.9824 157.521C61.821 157.904 62.5319 158.433 63.1152 159.107C63.6895 159.782 64.1315 160.579 64.4414 161.5C64.7513 162.411 64.9062 163.4 64.9062 164.467V164.768C64.9062 165.834 64.7513 166.823 64.4414 167.734C64.1315 168.646 63.6895 169.439 63.1152 170.113C62.5319 170.788 61.8255 171.316 60.9961 171.699C60.1667 172.082 59.2324 172.273 58.1934 172.273C57.1452 172.273 56.2018 172.082 55.3633 171.699C54.5339 171.316 53.832 170.788 53.2578 170.113C52.6745 169.439 52.2279 168.646 51.918 167.734C51.6081 166.823 51.4531 165.834 51.4531 164.768V164.467ZM53.9824 164.768C53.9824 165.497 54.069 166.194 54.2422 166.859C54.4154 167.516 54.6797 168.094 55.0352 168.596C55.3815 169.097 55.819 169.493 56.3477 169.785C56.8763 170.077 57.4915 170.223 58.1934 170.223C58.8861 170.223 59.4922 170.077 60.0117 169.785C60.5404 169.493 60.9824 169.097 61.3379 168.596C61.6842 168.094 61.944 167.516 62.1172 166.859C62.2904 166.194 62.377 165.497 62.377 164.768V164.467C62.377 163.747 62.2858 163.059 62.1035 162.402C61.9303 161.737 61.6706 161.154 61.3242 160.652C60.9688 160.151 60.5267 159.755 59.998 159.463C59.4785 159.162 58.8678 159.012 58.166 159.012C57.4642 159.012 56.8535 159.162 56.334 159.463C55.8145 159.755 55.3815 160.151 55.0352 160.652C54.6797 161.154 54.4154 161.737 54.2422 162.402C54.069 163.059 53.9824 163.747 53.9824 164.467V164.768ZM78.6738 156.934C79.1387 156.934 79.6217 156.965 80.123 157.029C80.6335 157.093 81.0163 157.18 81.2715 157.289L80.9297 159.764C80.4375 159.654 79.9681 159.577 79.5215 159.531C79.084 159.477 78.6237 159.449 78.1406 159.449C77.5208 159.449 76.9603 159.527 76.459 159.682C75.9577 159.827 75.5202 160.046 75.1465 160.338C74.8092 160.593 74.513 160.908 74.2578 161.281C74.0117 161.646 73.8066 162.056 73.6426 162.512V172H71.0996V157.207H73.5059L73.6152 159.189L73.6289 159.559C74.2305 158.747 74.9505 158.109 75.7891 157.645C76.6367 157.171 77.5983 156.934 78.6738 156.934ZM91.7852 153.625V157.207H97.418V159.162H91.7852V167.201C91.7852 167.775 91.8581 168.249 92.0039 168.623C92.1497 168.997 92.3503 169.293 92.6055 169.512C92.8607 169.74 93.1523 169.899 93.4805 169.99C93.8177 170.081 94.1732 170.127 94.5469 170.127C94.8203 170.127 95.1029 170.113 95.3945 170.086C95.6862 170.049 95.9733 170.008 96.2559 169.963C96.5293 169.917 96.7845 169.872 97.0215 169.826C97.2676 169.771 97.4681 169.726 97.623 169.689L97.9785 171.48C97.7689 171.608 97.5137 171.722 97.2129 171.822C96.9121 171.913 96.584 171.991 96.2285 172.055C95.873 172.128 95.4948 172.182 95.0938 172.219C94.7018 172.255 94.3099 172.273 93.918 172.273C93.2617 172.273 92.6465 172.182 92.0723 172C91.5072 171.809 91.015 171.508 90.5957 171.098C90.1764 170.697 89.8438 170.177 89.5977 169.539C89.3607 168.892 89.2422 168.113 89.2422 167.201V159.162H85.3594V157.207H89.2422V153.625H91.7852ZM106.387 172V159.162H102.312V157.207H106.387V156.168C106.387 155.22 106.523 154.391 106.797 153.68C107.079 152.96 107.476 152.358 107.986 151.875C108.488 151.392 109.094 151.027 109.805 150.781C110.516 150.535 111.309 150.412 112.184 150.412C112.548 150.412 112.908 150.435 113.264 150.48C113.619 150.517 113.97 150.567 114.316 150.631C114.544 150.676 114.772 150.727 115 150.781C115.228 150.827 115.46 150.882 115.697 150.945L115.396 153.037C115.023 152.91 114.585 152.8 114.084 152.709C113.592 152.609 113.063 152.559 112.498 152.559C111.924 152.559 111.413 152.632 110.967 152.777C110.529 152.914 110.165 153.124 109.873 153.406C109.563 153.698 109.326 154.076 109.162 154.541C109.007 155.006 108.93 155.548 108.93 156.168V157.207H114.631V159.162H108.93V172H106.387ZM118.719 164.467C118.719 163.4 118.874 162.411 119.184 161.5C119.493 160.579 119.94 159.782 120.523 159.107C121.098 158.433 121.799 157.904 122.629 157.521C123.458 157.13 124.393 156.934 125.432 156.934C126.48 156.934 127.419 157.13 128.248 157.521C129.087 157.904 129.798 158.433 130.381 159.107C130.955 159.782 131.397 160.579 131.707 161.5C132.017 162.411 132.172 163.4 132.172 164.467V164.768C132.172 165.834 132.017 166.823 131.707 167.734C131.397 168.646 130.955 169.439 130.381 170.113C129.798 170.788 129.091 171.316 128.262 171.699C127.432 172.082 126.498 172.273 125.459 172.273C124.411 172.273 123.467 172.082 122.629 171.699C121.799 171.316 121.098 170.788 120.523 170.113C119.94 169.439 119.493 168.646 119.184 167.734C118.874 166.823 118.719 165.834 118.719 164.768V164.467ZM121.248 164.768C121.248 165.497 121.335 166.194 121.508 166.859C121.681 167.516 121.945 168.094 122.301 168.596C122.647 169.097 123.085 169.493 123.613 169.785C124.142 170.077 124.757 170.223 125.459 170.223C126.152 170.223 126.758 170.077 127.277 169.785C127.806 169.493 128.248 169.097 128.604 168.596C128.95 168.094 129.21 167.516 129.383 166.859C129.556 166.194 129.643 165.497 129.643 164.768V164.467C129.643 163.747 129.551 163.059 129.369 162.402C129.196 161.737 128.936 161.154 128.59 160.652C128.234 160.151 127.792 159.755 127.264 159.463C126.744 159.162 126.133 159.012 125.432 159.012C124.73 159.012 124.119 159.162 123.6 159.463C123.08 159.755 122.647 160.151 122.301 160.652C121.945 161.154 121.681 161.737 121.508 162.402C121.335 163.059 121.248 163.747 121.248 164.467V164.768ZM136.643 151H144.203V169.812H149.029V172H136.643V169.812H141.674V153.201H136.643V151ZM153.459 157.207H161.02V169.812H165.846V172H153.459V169.812H158.49V159.408H153.459V157.207ZM158.162 153.324C158.162 153.105 158.194 152.9 158.258 152.709C158.331 152.518 158.44 152.354 158.586 152.217C158.704 152.098 158.855 152.007 159.037 151.943C159.229 151.87 159.443 151.834 159.68 151.834C159.917 151.834 160.126 151.87 160.309 151.943C160.491 152.007 160.641 152.098 160.76 152.217C160.906 152.344 161.015 152.504 161.088 152.695C161.161 152.887 161.197 153.096 161.197 153.324C161.197 153.734 161.07 154.076 160.814 154.35C160.559 154.623 160.181 154.76 159.68 154.76C159.169 154.76 158.786 154.623 158.531 154.35C158.285 154.076 158.162 153.734 158.162 153.324ZM169.168 164.467C169.168 163.4 169.323 162.411 169.633 161.5C169.943 160.579 170.389 159.782 170.973 159.107C171.547 158.433 172.249 157.904 173.078 157.521C173.908 157.13 174.842 156.934 175.881 156.934C176.929 156.934 177.868 157.13 178.697 157.521C179.536 157.904 180.247 158.433 180.83 159.107C181.404 159.782 181.846 160.579 182.156 161.5C182.466 162.411 182.621 163.4 182.621 164.467V164.768C182.621 165.834 182.466 166.823 182.156 167.734C181.846 168.646 181.404 169.439 180.83 170.113C180.247 170.788 179.54 171.316 178.711 171.699C177.882 172.082 176.947 172.273 175.908 172.273C174.86 172.273 173.917 172.082 173.078 171.699C172.249 171.316 171.547 170.788 170.973 170.113C170.389 169.439 169.943 168.646 169.633 167.734C169.323 166.823 169.168 165.834 169.168 164.768V164.467ZM171.697 164.768C171.697 165.497 171.784 166.194 171.957 166.859C172.13 167.516 172.395 168.094 172.75 168.596C173.096 169.097 173.534 169.493 174.062 169.785C174.591 170.077 175.206 170.223 175.908 170.223C176.601 170.223 177.207 170.077 177.727 169.785C178.255 169.493 178.697 169.097 179.053 168.596C179.399 168.094 179.659 167.516 179.832 166.859C180.005 166.194 180.092 165.497 180.092 164.768V164.467C180.092 163.747 180.001 163.059 179.818 162.402C179.645 161.737 179.385 161.154 179.039 160.652C178.684 160.151 178.242 159.755 177.713 159.463C177.193 159.162 176.583 159.012 175.881 159.012C175.179 159.012 174.568 159.162 174.049 159.463C173.529 159.755 173.096 160.151 172.75 160.652C172.395 161.154 172.13 161.737 171.957 162.402C171.784 163.059 171.697 163.747 171.697 164.467V164.768ZM202.596 166.9C202.596 166.29 202.687 165.725 202.869 165.205C203.051 164.686 203.307 164.198 203.635 163.742C203.917 163.359 204.241 162.995 204.605 162.648C204.979 162.302 205.389 161.96 205.836 161.623L206.328 161.268C205.991 160.812 205.69 160.374 205.426 159.955C205.161 159.527 204.943 159.107 204.77 158.697C204.633 158.36 204.523 158.018 204.441 157.672C204.368 157.326 204.332 156.97 204.332 156.605C204.332 155.831 204.446 155.147 204.674 154.555C204.911 153.953 205.243 153.447 205.672 153.037C206.1 152.636 206.615 152.331 207.217 152.121C207.818 151.911 208.493 151.807 209.24 151.807C209.887 151.807 210.475 151.921 211.004 152.148C211.533 152.376 211.984 152.682 212.357 153.064C212.722 153.456 213.005 153.908 213.205 154.418C213.406 154.928 213.506 155.466 213.506 156.031C213.506 156.514 213.433 156.956 213.287 157.357C213.15 157.749 212.959 158.118 212.713 158.465C212.458 158.811 212.157 159.139 211.811 159.449C211.464 159.759 211.09 160.064 210.689 160.365L209.404 161.459L213.602 166.969C213.921 166.385 214.171 165.747 214.354 165.055C214.536 164.362 214.632 163.615 214.641 162.812H216.924C216.924 163.979 216.755 165.064 216.418 166.066C216.09 167.06 215.607 167.958 214.969 168.76L217.443 172H214.422L213.287 170.496C213.032 170.715 212.763 170.915 212.48 171.098C212.207 171.28 211.924 171.439 211.633 171.576C211.15 171.804 210.644 171.977 210.115 172.096C209.596 172.214 209.058 172.273 208.502 172.273C207.6 172.273 206.784 172.141 206.055 171.877C205.326 171.613 204.706 171.243 204.195 170.77C203.685 170.296 203.288 169.73 203.006 169.074C202.732 168.409 202.596 167.684 202.596 166.9ZM208.502 170.223C208.876 170.223 209.245 170.182 209.609 170.1C209.974 170.018 210.325 169.899 210.662 169.744C210.908 169.635 211.145 169.507 211.373 169.361C211.61 169.206 211.838 169.038 212.057 168.855L207.641 162.963L207.258 163.291C206.802 163.665 206.433 164.029 206.15 164.385C205.868 164.74 205.654 165.073 205.508 165.383C205.353 165.702 205.248 165.993 205.193 166.258C205.148 166.513 205.125 166.727 205.125 166.9C205.125 167.365 205.198 167.798 205.344 168.199C205.49 168.6 205.704 168.951 205.986 169.252C206.269 169.553 206.62 169.79 207.039 169.963C207.458 170.136 207.946 170.223 208.502 170.223ZM206.875 156.578C206.875 156.806 206.898 157.038 206.943 157.275C206.989 157.503 207.057 157.731 207.148 157.959C207.258 158.26 207.399 158.565 207.572 158.875C207.745 159.185 207.946 159.504 208.174 159.832L209.773 158.561C210.056 158.369 210.288 158.169 210.471 157.959C210.653 157.749 210.794 157.535 210.895 157.316C210.995 157.107 211.063 156.893 211.1 156.674C211.145 156.455 211.168 156.241 211.168 156.031C211.168 155.758 211.122 155.493 211.031 155.238C210.949 154.974 210.826 154.742 210.662 154.541C210.489 154.35 210.284 154.195 210.047 154.076C209.81 153.949 209.541 153.885 209.24 153.885C208.848 153.885 208.502 153.958 208.201 154.104C207.91 154.249 207.668 154.445 207.477 154.691C207.276 154.938 207.126 155.225 207.025 155.553C206.925 155.872 206.875 156.214 206.875 156.578ZM249.682 164.768C249.682 165.415 249.632 166.039 249.531 166.641C249.44 167.233 249.303 167.789 249.121 168.309C248.875 168.992 248.551 169.607 248.15 170.154C247.758 170.692 247.285 171.139 246.729 171.494C246.327 171.74 245.885 171.932 245.402 172.068C244.928 172.205 244.413 172.273 243.857 172.273C243.219 172.273 242.636 172.196 242.107 172.041C241.588 171.886 241.118 171.663 240.699 171.371C240.499 171.225 240.307 171.066 240.125 170.893C239.943 170.719 239.77 170.528 239.605 170.318L239.482 172H237.158V151H239.688V158.793C239.897 158.529 240.13 158.292 240.385 158.082C240.64 157.863 240.913 157.676 241.205 157.521C241.57 157.33 241.971 157.184 242.408 157.084C242.846 156.984 243.32 156.934 243.83 156.934C244.468 156.934 245.056 157.02 245.594 157.193C246.132 157.367 246.619 157.608 247.057 157.918C247.449 158.21 247.799 158.565 248.109 158.984C248.419 159.395 248.693 159.855 248.93 160.365C249.176 160.939 249.363 161.577 249.49 162.279C249.618 162.972 249.682 163.706 249.682 164.48V164.768ZM247.152 164.48C247.152 164.016 247.12 163.564 247.057 163.127C247.002 162.68 246.915 162.261 246.797 161.869C246.633 161.386 246.419 160.944 246.154 160.543C245.89 160.142 245.566 159.827 245.184 159.6C244.919 159.436 244.623 159.308 244.295 159.217C243.967 159.126 243.602 159.08 243.201 159.08C242.764 159.08 242.363 159.139 241.998 159.258C241.633 159.367 241.31 159.522 241.027 159.723C240.736 159.932 240.476 160.178 240.248 160.461C240.029 160.734 239.842 161.035 239.688 161.363V167.83C239.852 168.158 240.043 168.464 240.262 168.746C240.49 169.02 240.749 169.261 241.041 169.471C241.333 169.68 241.661 169.844 242.025 169.963C242.39 170.072 242.791 170.127 243.229 170.127C243.648 170.127 244.031 170.077 244.377 169.977C244.723 169.867 245.033 169.712 245.307 169.512C245.671 169.257 245.977 168.933 246.223 168.541C246.469 168.149 246.665 167.712 246.811 167.229C246.929 166.864 247.016 166.472 247.07 166.053C247.125 165.633 247.152 165.205 247.152 164.768V164.48ZM254.357 151H261.918V169.812H266.744V172H254.357V169.812H259.389V153.201H254.357V151ZM270.066 164.467C270.066 163.4 270.221 162.411 270.531 161.5C270.841 160.579 271.288 159.782 271.871 159.107C272.445 158.433 273.147 157.904 273.977 157.521C274.806 157.13 275.74 156.934 276.779 156.934C277.827 156.934 278.766 157.13 279.596 157.521C280.434 157.904 281.145 158.433 281.729 159.107C282.303 159.782 282.745 160.579 283.055 161.5C283.365 162.411 283.52 163.4 283.52 164.467V164.768C283.52 165.834 283.365 166.823 283.055 167.734C282.745 168.646 282.303 169.439 281.729 170.113C281.145 170.788 280.439 171.316 279.609 171.699C278.78 172.082 277.846 172.273 276.807 172.273C275.758 172.273 274.815 172.082 273.977 171.699C273.147 171.316 272.445 170.788 271.871 170.113C271.288 169.439 270.841 168.646 270.531 167.734C270.221 166.823 270.066 165.834 270.066 164.768V164.467ZM272.596 164.768C272.596 165.497 272.682 166.194 272.855 166.859C273.029 167.516 273.293 168.094 273.648 168.596C273.995 169.097 274.432 169.493 274.961 169.785C275.49 170.077 276.105 170.223 276.807 170.223C277.499 170.223 278.105 170.077 278.625 169.785C279.154 169.493 279.596 169.097 279.951 168.596C280.298 168.094 280.557 167.516 280.73 166.859C280.904 166.194 280.99 165.497 280.99 164.768V164.467C280.99 163.747 280.899 163.059 280.717 162.402C280.544 161.737 280.284 161.154 279.938 160.652C279.582 160.151 279.14 159.755 278.611 159.463C278.092 159.162 277.481 159.012 276.779 159.012C276.077 159.012 275.467 159.162 274.947 159.463C274.428 159.755 273.995 160.151 273.648 160.652C273.293 161.154 273.029 161.737 272.855 162.402C272.682 163.059 272.596 163.747 272.596 164.467V164.768ZM287.129 164.48C287.129 163.378 287.261 162.366 287.525 161.445C287.799 160.516 288.191 159.718 288.701 159.053C289.212 158.387 289.831 157.868 290.561 157.494C291.29 157.12 292.115 156.934 293.035 156.934C293.628 156.934 294.17 157.002 294.662 157.139C295.163 157.275 295.615 157.476 296.016 157.74C296.234 157.877 296.439 158.036 296.631 158.219C296.831 158.401 297.018 158.602 297.191 158.82L297.314 157.207H299.611V171.686C299.611 172.661 299.456 173.527 299.146 174.283C298.846 175.04 298.422 175.682 297.875 176.211C297.319 176.74 296.658 177.141 295.893 177.414C295.127 177.688 294.279 177.824 293.35 177.824C292.967 177.824 292.529 177.779 292.037 177.688C291.545 177.605 291.048 177.464 290.547 177.264C290.036 177.072 289.544 176.812 289.07 176.484C288.605 176.156 288.204 175.751 287.867 175.268L289.18 173.75C289.49 174.124 289.809 174.438 290.137 174.693C290.465 174.958 290.798 175.167 291.135 175.322C291.472 175.477 291.809 175.587 292.146 175.65C292.484 175.723 292.821 175.76 293.158 175.76C293.76 175.76 294.302 175.673 294.785 175.5C295.268 175.327 295.683 175.072 296.029 174.734C296.367 174.406 296.626 173.996 296.809 173.504C296.991 173.012 297.082 172.447 297.082 171.809V170.537C296.891 170.756 296.686 170.956 296.467 171.139C296.257 171.321 296.029 171.48 295.783 171.617C295.4 171.827 294.977 171.986 294.512 172.096C294.047 172.214 293.546 172.273 293.008 172.273C292.105 172.273 291.29 172.082 290.561 171.699C289.831 171.316 289.216 170.788 288.715 170.113C288.204 169.439 287.812 168.646 287.539 167.734C287.266 166.814 287.129 165.825 287.129 164.768V164.48ZM289.658 164.768C289.658 165.488 289.731 166.171 289.877 166.818C290.032 167.465 290.273 168.035 290.602 168.527C290.921 169.02 291.331 169.411 291.832 169.703C292.333 169.986 292.935 170.127 293.637 170.127C294.074 170.127 294.466 170.077 294.812 169.977C295.168 169.867 295.487 169.717 295.77 169.525C296.043 169.334 296.289 169.106 296.508 168.842C296.727 168.577 296.918 168.286 297.082 167.967V161.186C296.918 160.876 296.727 160.593 296.508 160.338C296.289 160.083 296.038 159.859 295.756 159.668C295.473 159.486 295.159 159.344 294.812 159.244C294.466 159.135 294.083 159.08 293.664 159.08C292.953 159.08 292.342 159.226 291.832 159.518C291.331 159.809 290.921 160.201 290.602 160.693C290.273 161.195 290.032 161.773 289.877 162.43C289.731 163.077 289.658 163.76 289.658 164.48V164.768Z" fill="#DCDCDC"/>
<mask id="mask0_37_34" style="mask-type:luminance" maskUnits="userSpaceOnUse" x="299" y="102" width="901" height="104">
<path d="M1198.94 102.538L299.005 104.109L299.182 205.057L1199.12 203.486L1198.94 102.538Z" fill="white"/>
</mask>
<g mask="url(#mask0_37_34)">
<path d="M332.216 177.685L684.901 177.069L684.944 201.658L299.176 202.331L299.003 103.422L332.086 103.364L332.216 177.685ZM726.925 102.538L727.088 201.849L693.225 201.912L693.062 102.601L726.925 102.538ZM748.425 103.617L789.825 103.548L865.734 165.064L865.622 103.421L902.353 103.36L902.532 201.429L865.801 201.49L785.06 136.619L785.179 201.625L748.603 201.686L748.425 103.617ZM1000.33 201.108L956.685 164.387L945.863 164.406L945.927 201.204L913.757 201.26L913.589 103.839L945.759 103.783L945.813 134.94L957.969 134.919L998.535 103.689L1039.45 103.617L980.377 148.273L1042.44 201.033L1000.33 201.108ZM1114.07 102.138L1118.79 102.13C1128.69 102.113 1137.55 102.653 1145.53 103.889C1153.51 104.986 1160.15 106.503 1165.62 108.438C1170.94 110.374 1175.67 112.727 1179.67 115.499C1183.81 118.27 1186.91 121.043 1189.13 123.817C1191.5 126.591 1193.28 129.645 1194.76 132.976C1196.1 136.308 1197.13 139.223 1197.43 141.862C1197.88 144.501 1198.03 147.14 1198.04 150.057L1198.05 153.947C1198.05 156.725 1197.91 159.504 1197.47 162.144C1197.18 164.645 1196.15 167.703 1194.83 171.04C1193.36 174.376 1191.59 177.435 1189.38 180.357C1187.17 183.139 1184.07 185.923 1179.94 188.847C1175.81 191.633 1171.09 194.002 1165.78 196.096C1160.46 198.05 1153.82 199.589 1145.7 200.854C1137.72 202.118 1128.86 202.689 1118.97 202.706L1114.24 202.715C1104.35 202.732 1095.49 202.192 1087.36 200.956C1079.38 199.719 1072.59 198.203 1067.27 196.267C1061.95 194.193 1057.22 191.84 1053.08 189.068C1048.93 186.158 1045.83 183.385 1043.46 180.611C1041.24 177.698 1039.46 174.645 1038.13 171.313C1036.64 167.982 1035.75 164.927 1035.45 162.427C1035.01 159.788 1034.85 157.01 1034.85 154.232L1034.84 150.342C1034.84 147.425 1034.98 144.785 1035.42 142.145C1035.71 139.644 1036.59 136.586 1038.06 133.249C1039.38 129.913 1041.15 126.854 1043.36 124.072C1045.72 121.289 1048.82 118.505 1052.95 115.72C1056.93 112.934 1061.65 110.565 1066.97 108.611C1072.43 106.656 1079.22 105.116 1087.19 103.991C1095.31 102.726 1104.17 102.155 1114.07 102.138ZM1161.12 152.9L1161.12 151.094C1161.11 148.593 1160.81 146.232 1160.07 144.15C1159.33 141.929 1158 139.708 1155.93 137.35C1154 134.992 1151.34 132.913 1148.09 131.39C1144.84 129.729 1140.4 128.348 1134.94 127.246C1130.36 126.281 1125.19 125.874 1119.43 125.745C1118.1 125.608 1115.44 125.613 1114.55 125.614C1086.05 126.22 1071.74 134.719 1071.77 151.25L1071.77 152.778C1071.77 155.834 1072.37 158.889 1073.7 161.665C1074.89 164.442 1077.11 167.216 1080.07 169.989C1083.18 172.762 1087.76 174.977 1094.11 176.633C1100.02 178.151 1107.11 178.972 1115.24 179.097C1115.97 179.095 1117.75 179.092 1118.93 179.09C1126.46 178.799 1133.1 178.093 1138.57 176.555C1144.91 175.016 1149.64 172.785 1152.73 170.002C1155.83 167.357 1158.04 164.575 1159.22 161.794C1160.54 159.013 1161.13 155.956 1161.12 152.9Z" fill="#DCDCDC"/>
</g>
<mask id="mask1_37_34" style="mask-type:luminance" maskUnits="userSpaceOnUse" x="0" y="0" width="1040" height="106">
<path d="M1039.15 0.0236511H0.334694V105.666H1039.15V0.0236511Z" fill="white"/>
</mask>
<g mask="url(#mask1_37_34)">
<path d="M101.692 103.516H58.555L1.18511 2.12859H40.3609L81.004 76.6654L119.153 2.12859H155.101L101.692 103.516ZM163.886 1.83514H282V25.1646H198.513V40.4241H280.093V63.9002H198.513V80.7737H283.614V104.69H163.886V1.83514ZM332.016 78.7195H682.398V104.69H299.149V0.22113H332.016V78.7195ZM693.189 104.837V2.12859H742.929L781.518 66.1011L820.4 2.12859H868.379V104.837H833.752V33.6747L789.734 104.837H770.953L726.789 33.6747V104.837H693.189ZM983.866 2.3581L1039.15 104.16H1004.23L994.566 85.597H920.403L910.743 104.16H875.968L931.103 2.3581H983.866ZM932.855 63.1666H982.453L963.08 25.8982H952.076L932.855 63.1666Z" fill="#DCDCDC"/>
</g>
</svg>
