<svg width="1325" height="226" viewBox="0 0 1325 226" fill="none" xmlns="http://www.w3.org/2000/svg">
<path d="M124.616 120.8H80.516L21.866 17.15H61.916L103.466 93.35L142.466 17.15H179.216L124.616 120.8ZM188.197 16.85H308.947V40.7H223.597V56.3H306.997V80.3H223.597V97.55H310.597V122H188.197V16.85ZM360.079 95.45H718.279V122H326.479V15.2H360.079V95.45ZM729.311 122.15V17.15H780.161L819.611 82.55L859.361 17.15H908.411V122.15H873.011V49.4L828.011 122.15H808.811L763.661 49.4V122.15H729.311ZM1026.23 18.2L1082.03 121.85H1046.78L1037.03 102.95H962.175L952.425 121.85H917.325L972.975 18.2H1026.23ZM974.325 79.55H1025.03L1005.23 41.45H993.975L974.325 79.55Z" fill="#DCDCDC"/>
<path d="M360.77 197.45H718.97V224H327.17V117.2H360.77V197.45ZM765.552 119.3V224H729.852V119.3H765.552ZM783.615 119.15H823.515L896.565 185.15V119.15H931.965V224.15H896.565L818.865 154.55V224.15H783.615V119.15ZM1037.77 224L993.668 184.85H982.718V224H950.168V120.35H982.718V153.5H995.018L1036.12 120.35H1077.52L1017.67 167.75L1080.37 224H1037.77ZM1154.98 117.35H1159.78C1169.83 117.35 1178.83 117.95 1186.93 119.3C1195.03 120.5 1201.78 122.15 1207.33 124.25C1212.73 126.35 1217.53 128.9 1221.58 131.9C1225.78 134.9 1228.93 137.9 1231.18 140.9C1233.58 143.9 1235.38 147.2 1236.88 150.8C1238.23 154.4 1239.28 157.55 1239.58 160.4C1240.03 163.25 1240.18 166.1 1240.18 169.25V173.45C1240.18 176.45 1240.03 179.45 1239.58 182.3C1239.28 185 1238.23 188.3 1236.88 191.9C1235.38 195.5 1233.58 198.8 1231.33 201.95C1229.08 204.95 1225.93 207.95 1221.73 211.1C1217.53 214.1 1212.73 216.65 1207.33 218.9C1201.93 221 1195.18 222.65 1186.93 224C1178.83 225.35 1169.83 225.95 1159.78 225.95H1154.98C1144.93 225.95 1135.93 225.35 1127.68 224C1119.58 222.65 1112.68 221 1107.28 218.9C1101.88 216.65 1097.08 214.1 1092.88 211.1C1088.68 207.95 1085.53 204.95 1083.13 201.95C1080.88 198.8 1079.08 195.5 1077.73 191.9C1076.23 188.3 1075.33 185 1075.03 182.3C1074.58 179.45 1074.43 176.45 1074.43 173.45V169.25C1074.43 166.1 1074.58 163.25 1075.03 160.4C1075.33 157.7 1076.23 154.4 1077.73 150.8C1079.08 147.2 1080.88 143.9 1083.13 140.9C1085.53 137.9 1088.68 134.9 1092.88 131.9C1096.93 128.9 1101.73 126.35 1107.13 124.25C1112.68 122.15 1119.58 120.5 1127.68 119.3C1135.93 117.95 1144.93 117.35 1154.98 117.35ZM1202.68 172.25V170.3C1202.68 167.6 1202.38 165.05 1201.63 162.8C1200.88 160.4 1199.53 158 1197.43 155.45C1195.48 152.9 1192.78 150.65 1189.48 149C1186.18 147.2 1181.68 145.7 1176.13 144.5C1171.48 143.45 1166.23 143 1160.38 142.85C1159.03 142.7 1156.33 142.7 1155.43 142.7C1126.48 143.3 1111.93 152.45 1111.93 170.3V171.95C1111.93 175.25 1112.53 178.55 1113.88 181.55C1115.08 184.55 1117.33 187.55 1120.33 190.55C1123.48 193.55 1128.13 195.95 1134.58 197.75C1140.58 199.4 1147.78 200.3 1156.03 200.45C1156.78 200.45 1158.58 200.45 1159.78 200.45C1167.43 200.15 1174.18 199.4 1179.73 197.75C1186.18 196.1 1190.98 193.7 1194.13 190.7C1197.28 187.85 1199.53 184.85 1200.73 181.85C1202.08 178.85 1202.68 175.55 1202.68 172.25Z" fill="#DCDCDC"/>
<path d="M63.334 194.688V174.207H65.6445L65.7676 175.82C65.9681 175.565 66.1868 175.337 66.4238 175.137C66.6608 174.927 66.916 174.749 67.1895 174.604C67.5723 174.385 67.9961 174.221 68.4609 174.111C68.9349 173.993 69.4408 173.934 69.9785 173.934C70.9264 173.934 71.765 174.12 72.4941 174.494C73.2233 174.868 73.834 175.387 74.3262 176.053C74.8184 176.718 75.1921 177.516 75.4473 178.445C75.7025 179.366 75.8301 180.378 75.8301 181.48V181.768C75.8301 182.825 75.7025 183.814 75.4473 184.734C75.1921 185.646 74.8184 186.439 74.3262 187.113C73.834 187.788 73.2233 188.316 72.4941 188.699C71.7741 189.082 70.9492 189.273 70.0195 189.273C69.4544 189.273 68.9258 189.214 68.4336 189.096C67.9505 188.977 67.513 188.809 67.1211 188.59C66.8841 188.453 66.6608 188.303 66.4512 188.139C66.2415 187.965 66.0456 187.779 65.8633 187.578V194.688H63.334ZM73.3008 181.48C73.3008 180.76 73.2188 180.077 73.0547 179.43C72.8997 178.773 72.6582 178.195 72.3301 177.693C71.9928 177.201 71.569 176.809 71.0586 176.518C70.5482 176.226 69.9375 176.08 69.2266 176.08C68.8346 176.08 68.4701 176.126 68.1328 176.217C67.8047 176.308 67.5085 176.44 67.2441 176.613C66.9525 176.786 66.6927 177.001 66.4648 177.256C66.237 177.511 66.0365 177.794 65.8633 178.104V185.227C66.0182 185.5 66.196 185.755 66.3965 185.992C66.597 186.229 66.8249 186.43 67.0801 186.594C67.3717 186.785 67.6953 186.936 68.0508 187.045C68.4154 187.154 68.8164 187.209 69.2539 187.209C69.9557 187.209 70.5618 187.063 71.0723 186.771C71.5827 186.471 72.002 186.07 72.3301 185.568C72.6582 185.067 72.8997 184.488 73.0547 183.832C73.2188 183.176 73.3008 182.488 73.3008 181.768V181.48ZM79.4531 181.467C79.4531 180.4 79.6081 179.411 79.918 178.5C80.2279 177.579 80.6745 176.782 81.2578 176.107C81.832 175.433 82.5339 174.904 83.3633 174.521C84.1927 174.13 85.127 173.934 86.166 173.934C87.2142 173.934 88.153 174.13 88.9824 174.521C89.821 174.904 90.5319 175.433 91.1152 176.107C91.6895 176.782 92.1315 177.579 92.4414 178.5C92.7513 179.411 92.9062 180.4 92.9062 181.467V181.768C92.9062 182.834 92.7513 183.823 92.4414 184.734C92.1315 185.646 91.6895 186.439 91.1152 187.113C90.5319 187.788 89.8255 188.316 88.9961 188.699C88.1667 189.082 87.2324 189.273 86.1934 189.273C85.1452 189.273 84.2018 189.082 83.3633 188.699C82.5339 188.316 81.832 187.788 81.2578 187.113C80.6745 186.439 80.2279 185.646 79.918 184.734C79.6081 183.823 79.4531 182.834 79.4531 181.768V181.467ZM81.9824 181.768C81.9824 182.497 82.069 183.194 82.2422 183.859C82.4154 184.516 82.6797 185.094 83.0352 185.596C83.3815 186.097 83.819 186.493 84.3477 186.785C84.8763 187.077 85.4915 187.223 86.1934 187.223C86.8861 187.223 87.4922 187.077 88.0117 186.785C88.5404 186.493 88.9824 186.097 89.3379 185.596C89.6842 185.094 89.944 184.516 90.1172 183.859C90.2904 183.194 90.377 182.497 90.377 181.768V181.467C90.377 180.747 90.2858 180.059 90.1035 179.402C89.9303 178.737 89.6706 178.154 89.3242 177.652C88.9688 177.151 88.5267 176.755 87.998 176.463C87.4785 176.162 86.8678 176.012 86.166 176.012C85.4642 176.012 84.8535 176.162 84.334 176.463C83.8145 176.755 83.3815 177.151 83.0352 177.652C82.6797 178.154 82.4154 178.737 82.2422 179.402C82.069 180.059 81.9824 180.747 81.9824 181.467V181.768ZM106.674 173.934C107.139 173.934 107.622 173.965 108.123 174.029C108.633 174.093 109.016 174.18 109.271 174.289L108.93 176.764C108.438 176.654 107.968 176.577 107.521 176.531C107.084 176.477 106.624 176.449 106.141 176.449C105.521 176.449 104.96 176.527 104.459 176.682C103.958 176.827 103.52 177.046 103.146 177.338C102.809 177.593 102.513 177.908 102.258 178.281C102.012 178.646 101.807 179.056 101.643 179.512V189H99.0996V174.207H101.506L101.615 176.189L101.629 176.559C102.23 175.747 102.951 175.109 103.789 174.645C104.637 174.171 105.598 173.934 106.674 173.934ZM119.785 170.625V174.207H125.418V176.162H119.785V184.201C119.785 184.775 119.858 185.249 120.004 185.623C120.15 185.997 120.35 186.293 120.605 186.512C120.861 186.74 121.152 186.899 121.48 186.99C121.818 187.081 122.173 187.127 122.547 187.127C122.82 187.127 123.103 187.113 123.395 187.086C123.686 187.049 123.973 187.008 124.256 186.963C124.529 186.917 124.785 186.872 125.021 186.826C125.268 186.771 125.468 186.726 125.623 186.689L125.979 188.48C125.769 188.608 125.514 188.722 125.213 188.822C124.912 188.913 124.584 188.991 124.229 189.055C123.873 189.128 123.495 189.182 123.094 189.219C122.702 189.255 122.31 189.273 121.918 189.273C121.262 189.273 120.646 189.182 120.072 189C119.507 188.809 119.015 188.508 118.596 188.098C118.176 187.697 117.844 187.177 117.598 186.539C117.361 185.892 117.242 185.113 117.242 184.201V176.162H113.359V174.207H117.242V170.625H119.785ZM134.387 189V176.162H130.312V174.207H134.387V173.168C134.387 172.22 134.523 171.391 134.797 170.68C135.079 169.96 135.476 169.358 135.986 168.875C136.488 168.392 137.094 168.027 137.805 167.781C138.516 167.535 139.309 167.412 140.184 167.412C140.548 167.412 140.908 167.435 141.264 167.48C141.619 167.517 141.97 167.567 142.316 167.631C142.544 167.676 142.772 167.727 143 167.781C143.228 167.827 143.46 167.882 143.697 167.945L143.396 170.037C143.023 169.91 142.585 169.8 142.084 169.709C141.592 169.609 141.063 169.559 140.498 169.559C139.924 169.559 139.413 169.632 138.967 169.777C138.529 169.914 138.165 170.124 137.873 170.406C137.563 170.698 137.326 171.076 137.162 171.541C137.007 172.006 136.93 172.548 136.93 173.168V174.207H142.631V176.162H136.93V189H134.387ZM146.719 181.467C146.719 180.4 146.874 179.411 147.184 178.5C147.493 177.579 147.94 176.782 148.523 176.107C149.098 175.433 149.799 174.904 150.629 174.521C151.458 174.13 152.393 173.934 153.432 173.934C154.48 173.934 155.419 174.13 156.248 174.521C157.087 174.904 157.798 175.433 158.381 176.107C158.955 176.782 159.397 177.579 159.707 178.5C160.017 179.411 160.172 180.4 160.172 181.467V181.768C160.172 182.834 160.017 183.823 159.707 184.734C159.397 185.646 158.955 186.439 158.381 187.113C157.798 187.788 157.091 188.316 156.262 188.699C155.432 189.082 154.498 189.273 153.459 189.273C152.411 189.273 151.467 189.082 150.629 188.699C149.799 188.316 149.098 187.788 148.523 187.113C147.94 186.439 147.493 185.646 147.184 184.734C146.874 183.823 146.719 182.834 146.719 181.768V181.467ZM149.248 181.768C149.248 182.497 149.335 183.194 149.508 183.859C149.681 184.516 149.945 185.094 150.301 185.596C150.647 186.097 151.085 186.493 151.613 186.785C152.142 187.077 152.757 187.223 153.459 187.223C154.152 187.223 154.758 187.077 155.277 186.785C155.806 186.493 156.248 186.097 156.604 185.596C156.95 185.094 157.21 184.516 157.383 183.859C157.556 183.194 157.643 182.497 157.643 181.768V181.467C157.643 180.747 157.551 180.059 157.369 179.402C157.196 178.737 156.936 178.154 156.59 177.652C156.234 177.151 155.792 176.755 155.264 176.463C154.744 176.162 154.133 176.012 153.432 176.012C152.73 176.012 152.119 176.162 151.6 176.463C151.08 176.755 150.647 177.151 150.301 177.652C149.945 178.154 149.681 178.737 149.508 179.402C149.335 180.059 149.248 180.747 149.248 181.467V181.768ZM164.643 168H172.203V186.812H177.029V189H164.643V186.812H169.674V170.201H164.643V168ZM181.459 174.207H189.02V186.812H193.846V189H181.459V186.812H186.49V176.408H181.459V174.207ZM186.162 170.324C186.162 170.105 186.194 169.9 186.258 169.709C186.331 169.518 186.44 169.354 186.586 169.217C186.704 169.098 186.855 169.007 187.037 168.943C187.229 168.87 187.443 168.834 187.68 168.834C187.917 168.834 188.126 168.87 188.309 168.943C188.491 169.007 188.641 169.098 188.76 169.217C188.906 169.344 189.015 169.504 189.088 169.695C189.161 169.887 189.197 170.096 189.197 170.324C189.197 170.734 189.07 171.076 188.814 171.35C188.559 171.623 188.181 171.76 187.68 171.76C187.169 171.76 186.786 171.623 186.531 171.35C186.285 171.076 186.162 170.734 186.162 170.324ZM197.168 181.467C197.168 180.4 197.323 179.411 197.633 178.5C197.943 177.579 198.389 176.782 198.973 176.107C199.547 175.433 200.249 174.904 201.078 174.521C201.908 174.13 202.842 173.934 203.881 173.934C204.929 173.934 205.868 174.13 206.697 174.521C207.536 174.904 208.247 175.433 208.83 176.107C209.404 176.782 209.846 177.579 210.156 178.5C210.466 179.411 210.621 180.4 210.621 181.467V181.768C210.621 182.834 210.466 183.823 210.156 184.734C209.846 185.646 209.404 186.439 208.83 187.113C208.247 187.788 207.54 188.316 206.711 188.699C205.882 189.082 204.947 189.273 203.908 189.273C202.86 189.273 201.917 189.082 201.078 188.699C200.249 188.316 199.547 187.788 198.973 187.113C198.389 186.439 197.943 185.646 197.633 184.734C197.323 183.823 197.168 182.834 197.168 181.768V181.467ZM199.697 181.768C199.697 182.497 199.784 183.194 199.957 183.859C200.13 184.516 200.395 185.094 200.75 185.596C201.096 186.097 201.534 186.493 202.062 186.785C202.591 187.077 203.206 187.223 203.908 187.223C204.601 187.223 205.207 187.077 205.727 186.785C206.255 186.493 206.697 186.097 207.053 185.596C207.399 185.094 207.659 184.516 207.832 183.859C208.005 183.194 208.092 182.497 208.092 181.768V181.467C208.092 180.747 208.001 180.059 207.818 179.402C207.645 178.737 207.385 178.154 207.039 177.652C206.684 177.151 206.242 176.755 205.713 176.463C205.193 176.162 204.583 176.012 203.881 176.012C203.179 176.012 202.568 176.162 202.049 176.463C201.529 176.755 201.096 177.151 200.75 177.652C200.395 178.154 200.13 178.737 199.957 179.402C199.784 180.059 199.697 180.747 199.697 181.467V181.768ZM230.596 183.9C230.596 183.29 230.687 182.725 230.869 182.205C231.051 181.686 231.307 181.198 231.635 180.742C231.917 180.359 232.241 179.995 232.605 179.648C232.979 179.302 233.389 178.96 233.836 178.623L234.328 178.268C233.991 177.812 233.69 177.374 233.426 176.955C233.161 176.527 232.943 176.107 232.77 175.697C232.633 175.36 232.523 175.018 232.441 174.672C232.368 174.326 232.332 173.97 232.332 173.605C232.332 172.831 232.446 172.147 232.674 171.555C232.911 170.953 233.243 170.447 233.672 170.037C234.1 169.636 234.615 169.331 235.217 169.121C235.818 168.911 236.493 168.807 237.24 168.807C237.887 168.807 238.475 168.921 239.004 169.148C239.533 169.376 239.984 169.682 240.357 170.064C240.722 170.456 241.005 170.908 241.205 171.418C241.406 171.928 241.506 172.466 241.506 173.031C241.506 173.514 241.433 173.956 241.287 174.357C241.15 174.749 240.959 175.118 240.713 175.465C240.458 175.811 240.157 176.139 239.811 176.449C239.464 176.759 239.09 177.064 238.689 177.365L237.404 178.459L241.602 183.969C241.921 183.385 242.171 182.747 242.354 182.055C242.536 181.362 242.632 180.615 242.641 179.812H244.924C244.924 180.979 244.755 182.064 244.418 183.066C244.09 184.06 243.607 184.958 242.969 185.76L245.443 189H242.422L241.287 187.496C241.032 187.715 240.763 187.915 240.48 188.098C240.207 188.28 239.924 188.439 239.633 188.576C239.15 188.804 238.644 188.977 238.115 189.096C237.596 189.214 237.058 189.273 236.502 189.273C235.6 189.273 234.784 189.141 234.055 188.877C233.326 188.613 232.706 188.243 232.195 187.77C231.685 187.296 231.288 186.73 231.006 186.074C230.732 185.409 230.596 184.684 230.596 183.9ZM236.502 187.223C236.876 187.223 237.245 187.182 237.609 187.1C237.974 187.018 238.325 186.899 238.662 186.744C238.908 186.635 239.145 186.507 239.373 186.361C239.61 186.206 239.838 186.038 240.057 185.855L235.641 179.963L235.258 180.291C234.802 180.665 234.433 181.029 234.15 181.385C233.868 181.74 233.654 182.073 233.508 182.383C233.353 182.702 233.248 182.993 233.193 183.258C233.148 183.513 233.125 183.727 233.125 183.9C233.125 184.365 233.198 184.798 233.344 185.199C233.49 185.6 233.704 185.951 233.986 186.252C234.269 186.553 234.62 186.79 235.039 186.963C235.458 187.136 235.946 187.223 236.502 187.223ZM234.875 173.578C234.875 173.806 234.898 174.038 234.943 174.275C234.989 174.503 235.057 174.731 235.148 174.959C235.258 175.26 235.399 175.565 235.572 175.875C235.745 176.185 235.946 176.504 236.174 176.832L237.773 175.561C238.056 175.369 238.288 175.169 238.471 174.959C238.653 174.749 238.794 174.535 238.895 174.316C238.995 174.107 239.063 173.893 239.1 173.674C239.145 173.455 239.168 173.241 239.168 173.031C239.168 172.758 239.122 172.493 239.031 172.238C238.949 171.974 238.826 171.742 238.662 171.541C238.489 171.35 238.284 171.195 238.047 171.076C237.81 170.949 237.541 170.885 237.24 170.885C236.848 170.885 236.502 170.958 236.201 171.104C235.91 171.249 235.668 171.445 235.477 171.691C235.276 171.938 235.126 172.225 235.025 172.553C234.925 172.872 234.875 173.214 234.875 173.578ZM277.682 181.768C277.682 182.415 277.632 183.039 277.531 183.641C277.44 184.233 277.303 184.789 277.121 185.309C276.875 185.992 276.551 186.607 276.15 187.154C275.758 187.692 275.285 188.139 274.729 188.494C274.327 188.74 273.885 188.932 273.402 189.068C272.928 189.205 272.413 189.273 271.857 189.273C271.219 189.273 270.636 189.196 270.107 189.041C269.588 188.886 269.118 188.663 268.699 188.371C268.499 188.225 268.307 188.066 268.125 187.893C267.943 187.719 267.77 187.528 267.605 187.318L267.482 189H265.158V168H267.688V175.793C267.897 175.529 268.13 175.292 268.385 175.082C268.64 174.863 268.913 174.676 269.205 174.521C269.57 174.33 269.971 174.184 270.408 174.084C270.846 173.984 271.32 173.934 271.83 173.934C272.468 173.934 273.056 174.02 273.594 174.193C274.132 174.367 274.619 174.608 275.057 174.918C275.449 175.21 275.799 175.565 276.109 175.984C276.419 176.395 276.693 176.855 276.93 177.365C277.176 177.939 277.363 178.577 277.49 179.279C277.618 179.972 277.682 180.706 277.682 181.48V181.768ZM275.152 181.48C275.152 181.016 275.12 180.564 275.057 180.127C275.002 179.68 274.915 179.261 274.797 178.869C274.633 178.386 274.419 177.944 274.154 177.543C273.89 177.142 273.566 176.827 273.184 176.6C272.919 176.436 272.623 176.308 272.295 176.217C271.967 176.126 271.602 176.08 271.201 176.08C270.764 176.08 270.363 176.139 269.998 176.258C269.633 176.367 269.31 176.522 269.027 176.723C268.736 176.932 268.476 177.178 268.248 177.461C268.029 177.734 267.842 178.035 267.688 178.363V184.83C267.852 185.158 268.043 185.464 268.262 185.746C268.49 186.02 268.749 186.261 269.041 186.471C269.333 186.68 269.661 186.844 270.025 186.963C270.39 187.072 270.791 187.127 271.229 187.127C271.648 187.127 272.031 187.077 272.377 186.977C272.723 186.867 273.033 186.712 273.307 186.512C273.671 186.257 273.977 185.933 274.223 185.541C274.469 185.149 274.665 184.712 274.811 184.229C274.929 183.864 275.016 183.472 275.07 183.053C275.125 182.633 275.152 182.205 275.152 181.768V181.48ZM282.357 168H289.918V186.812H294.744V189H282.357V186.812H287.389V170.201H282.357V168ZM298.066 181.467C298.066 180.4 298.221 179.411 298.531 178.5C298.841 177.579 299.288 176.782 299.871 176.107C300.445 175.433 301.147 174.904 301.977 174.521C302.806 174.13 303.74 173.934 304.779 173.934C305.827 173.934 306.766 174.13 307.596 174.521C308.434 174.904 309.145 175.433 309.729 176.107C310.303 176.782 310.745 177.579 311.055 178.5C311.365 179.411 311.52 180.4 311.52 181.467V181.768C311.52 182.834 311.365 183.823 311.055 184.734C310.745 185.646 310.303 186.439 309.729 187.113C309.145 187.788 308.439 188.316 307.609 188.699C306.78 189.082 305.846 189.273 304.807 189.273C303.758 189.273 302.815 189.082 301.977 188.699C301.147 188.316 300.445 187.788 299.871 187.113C299.288 186.439 298.841 185.646 298.531 184.734C298.221 183.823 298.066 182.834 298.066 181.768V181.467ZM300.596 181.768C300.596 182.497 300.682 183.194 300.855 183.859C301.029 184.516 301.293 185.094 301.648 185.596C301.995 186.097 302.432 186.493 302.961 186.785C303.49 187.077 304.105 187.223 304.807 187.223C305.499 187.223 306.105 187.077 306.625 186.785C307.154 186.493 307.596 186.097 307.951 185.596C308.298 185.094 308.557 184.516 308.73 183.859C308.904 183.194 308.99 182.497 308.99 181.768V181.467C308.99 180.747 308.899 180.059 308.717 179.402C308.544 178.737 308.284 178.154 307.938 177.652C307.582 177.151 307.14 176.755 306.611 176.463C306.092 176.162 305.481 176.012 304.779 176.012C304.077 176.012 303.467 176.162 302.947 176.463C302.428 176.755 301.995 177.151 301.648 177.652C301.293 178.154 301.029 178.737 300.855 179.402C300.682 180.059 300.596 180.747 300.596 181.467V181.768ZM315.129 181.48C315.129 180.378 315.261 179.366 315.525 178.445C315.799 177.516 316.191 176.718 316.701 176.053C317.212 175.387 317.831 174.868 318.561 174.494C319.29 174.12 320.115 173.934 321.035 173.934C321.628 173.934 322.17 174.002 322.662 174.139C323.163 174.275 323.615 174.476 324.016 174.74C324.234 174.877 324.439 175.036 324.631 175.219C324.831 175.401 325.018 175.602 325.191 175.82L325.314 174.207H327.611V188.686C327.611 189.661 327.456 190.527 327.146 191.283C326.846 192.04 326.422 192.682 325.875 193.211C325.319 193.74 324.658 194.141 323.893 194.414C323.127 194.688 322.279 194.824 321.35 194.824C320.967 194.824 320.529 194.779 320.037 194.688C319.545 194.605 319.048 194.464 318.547 194.264C318.036 194.072 317.544 193.812 317.07 193.484C316.605 193.156 316.204 192.751 315.867 192.268L317.18 190.75C317.49 191.124 317.809 191.438 318.137 191.693C318.465 191.958 318.798 192.167 319.135 192.322C319.472 192.477 319.809 192.587 320.146 192.65C320.484 192.723 320.821 192.76 321.158 192.76C321.76 192.76 322.302 192.673 322.785 192.5C323.268 192.327 323.683 192.072 324.029 191.734C324.367 191.406 324.626 190.996 324.809 190.504C324.991 190.012 325.082 189.447 325.082 188.809V187.537C324.891 187.756 324.686 187.956 324.467 188.139C324.257 188.321 324.029 188.48 323.783 188.617C323.4 188.827 322.977 188.986 322.512 189.096C322.047 189.214 321.546 189.273 321.008 189.273C320.105 189.273 319.29 189.082 318.561 188.699C317.831 188.316 317.216 187.788 316.715 187.113C316.204 186.439 315.812 185.646 315.539 184.734C315.266 183.814 315.129 182.825 315.129 181.768V181.48ZM317.658 181.768C317.658 182.488 317.731 183.171 317.877 183.818C318.032 184.465 318.273 185.035 318.602 185.527C318.921 186.02 319.331 186.411 319.832 186.703C320.333 186.986 320.935 187.127 321.637 187.127C322.074 187.127 322.466 187.077 322.812 186.977C323.168 186.867 323.487 186.717 323.77 186.525C324.043 186.334 324.289 186.106 324.508 185.842C324.727 185.577 324.918 185.286 325.082 184.967V178.186C324.918 177.876 324.727 177.593 324.508 177.338C324.289 177.083 324.038 176.859 323.756 176.668C323.473 176.486 323.159 176.344 322.812 176.244C322.466 176.135 322.083 176.08 321.664 176.08C320.953 176.08 320.342 176.226 319.832 176.518C319.331 176.809 318.921 177.201 318.602 177.693C318.273 178.195 318.032 178.773 317.877 179.43C317.731 180.077 317.658 180.76 317.658 181.48V181.768Z" fill="#DCDCDC"/>
</svg>
